<svg width="248" height="248" viewBox="0 0 248 248" fill="none" xmlns="http://www.w3.org/2000/svg">
<rect width="248" height="248" rx="40" fill="#414141"/>
<path d="M35.552 103.4V137H43.952V103.4H35.552ZM55.376 103.4L41.6 119.384L55.76 137H65.6L51.248 119.144L64.88 103.4H55.376ZM67.9625 106.616C67.9625 107.768 68.3785 108.712 69.2105 109.448C70.0425 110.184 71.0345 110.552 72.1865 110.552C73.3705 110.552 74.3625 110.184 75.1625 109.448C75.9945 108.712 76.4105 107.768 76.4105 106.616C76.4105 105.464 75.9945 104.536 75.1625 103.832C74.3625 103.096 73.3705 102.728 72.1865 102.728C71.0345 102.728 70.0425 103.096 69.2105 103.832C68.3785 104.536 67.9625 105.464 67.9625 106.616ZM68.6825 114.92V137H75.6905V114.92H68.6825ZM96.0121 123.56V137H103.548V122.792C103.548 120.136 102.924 118.072 101.676 116.6C100.428 115.128 98.4281 114.392 95.6761 114.392C94.0441 114.392 92.6681 114.728 91.5481 115.4C90.4601 116.072 89.5961 117.016 88.9561 118.232V114.92H81.6601V137H88.9561V123.56C88.9561 122.696 89.1161 121.96 89.4361 121.352C89.7561 120.744 90.2041 120.28 90.7801 119.96C91.3561 119.64 92.0281 119.48 92.7961 119.48C93.9481 119.48 94.7641 119.832 95.2441 120.536C95.7561 121.24 96.0121 122.248 96.0121 123.56ZM107.974 125.96C107.974 128.264 108.518 130.28 109.605 132.008C110.694 133.736 112.198 135.08 114.118 136.04C116.038 137 118.198 137.48 120.598 137.48C122.998 137.48 125.142 137 127.03 136.04C128.95 135.08 130.454 133.736 131.542 132.008C132.662 130.28 133.222 128.264 133.222 125.96C133.222 123.624 132.662 121.592 131.542 119.864C130.454 118.136 128.95 116.792 127.03 115.832C125.142 114.872 122.998 114.392 120.598 114.392C118.198 114.392 116.038 114.872 114.118 115.832C112.198 116.792 110.694 118.136 109.605 119.864C108.518 121.592 107.974 123.624 107.974 125.96ZM115.414 125.96C115.414 124.808 115.654 123.816 116.134 122.984C116.614 122.152 117.238 121.512 118.006 121.064C118.774 120.616 119.638 120.392 120.598 120.392C121.526 120.392 122.374 120.616 123.142 121.064C123.942 121.512 124.566 122.152 125.014 122.984C125.494 123.816 125.734 124.808 125.734 125.96C125.734 127.112 125.494 128.104 125.014 128.936C124.566 129.736 123.942 130.36 123.142 130.808C122.374 131.256 121.526 131.48 120.598 131.48C119.638 131.48 118.774 131.256 118.006 130.808C117.238 130.36 116.614 129.736 116.134 128.936C115.654 128.104 115.414 127.112 115.414 125.96ZM146.895 119.864L156.063 133.88L165.279 119.864L167.295 137H175.839L170.415 101.72L156.063 122.216L141.759 101.72L136.335 137H144.879L146.895 119.864ZM179.853 106.616C179.853 107.768 180.269 108.712 181.101 109.448C181.933 110.184 182.925 110.552 184.077 110.552C185.261 110.552 186.253 110.184 187.053 109.448C187.885 108.712 188.301 107.768 188.301 106.616C188.301 105.464 187.885 104.536 187.053 103.832C186.253 103.096 185.261 102.728 184.077 102.728C182.925 102.728 181.933 103.096 181.101 103.832C180.269 104.536 179.853 105.464 179.853 106.616ZM180.573 114.92V137H187.581V114.92H180.573ZM200.703 114.92H193.551V137H200.703V114.92ZM207.087 122.408L210.207 116.216C209.823 115.64 209.263 115.192 208.527 114.872C207.791 114.552 207.023 114.392 206.223 114.392C205.007 114.392 203.839 114.792 202.719 115.592C201.599 116.392 200.687 117.48 199.983 118.856C199.311 120.232 198.975 121.8 198.975 123.56L200.703 126.104C200.703 125.048 200.847 124.152 201.135 123.416C201.423 122.68 201.839 122.12 202.383 121.736C202.927 121.352 203.551 121.16 204.255 121.16C204.895 121.16 205.423 121.272 205.839 121.496C206.287 121.72 206.703 122.024 207.087 122.408Z" fill="white"/>
</svg>
